<?xml version="1.0" encoding="utf-8"?>
<!-- Generator: Adobe Illustrator 17.1.0, SVG Export Plug-In . SVG Version: 6.00 Build 0)  -->
<!DOCTYPE svg PUBLIC "-//W3C//DTD SVG 1.1 Tiny//EN" "http://www.w3.org/Graphics/SVG/1.1/DTD/svg11-tiny.dtd">
<svg version="1.1" baseProfile="tiny" xmlns="http://www.w3.org/2000/svg" xmlns:xlink="http://www.w3.org/1999/xlink" x="0px"
	 y="0px" viewBox="0 0 250 75" xml:space="preserve">
<g id="Layer_1" display="none">
	<g display="inline">
		<path fill="#FFFFFF" d="M90.5,17.1c0,1.3-0.1,2.3-0.2,3c-0.2,1.5-0.9,2.6-2,3.2c-0.9,0.5-2.1,0.7-3.8,0.7h-4.4V10.1h4.4
			c1.7,0,3,0.2,3.8,0.7c1.1,0.6,1.7,1.7,2,3.2C90.4,14.7,90.5,15.8,90.5,17.1z M88.4,17.1c0-1.5,0-2.4-0.1-2.9
			c-0.1-0.7-0.4-1.3-1-1.6c-0.5-0.3-1.4-0.5-2.7-0.5h-2.3V22h2.3c1.3,0,2.2-0.2,2.7-0.5c0.5-0.3,0.9-0.8,1-1.6
			C88.3,19.5,88.4,18.6,88.4,17.1z"/>
		<path fill="#FFFFFF" d="M101,19.2c0,1.4-0.2,2.5-0.7,3.3c-0.7,1.2-1.9,1.8-3.6,1.8c-1.7,0-2.8-0.6-3.6-1.8
			c-0.5-0.8-0.7-1.8-0.7-3.3c0-1.4,0.2-2.5,0.7-3.3c0.7-1.2,1.9-1.8,3.6-1.8c1.6,0,2.8,0.6,3.6,1.8C100.8,16.7,101,17.8,101,19.2z
			 M99,19.2c0-1.1-0.1-1.8-0.4-2.2c-0.3-0.5-1-0.8-1.8-0.8c-0.9,0-1.5,0.3-1.8,0.8c-0.3,0.4-0.4,1.2-0.4,2.2c0,1.1,0.1,1.8,0.4,2.2
			c0.3,0.6,1,0.8,1.8,0.8c0.9,0,1.5-0.3,1.8-0.8C98.9,21,99,20.3,99,19.2z"/>
		<path fill="#FFFFFF" d="M116.8,14.2l-3.3,9.9h-1.8l-2.4-6.2l-2.3,6.2h-1.8l-3.2-9.9h2.2l2,6.2l2.3-6.2h1.8l2.3,6.2l2.1-6.2H116.8z
			"/>
		<path fill="#FFFFFF" d="M126.5,24.1h-2v-5.6c0-0.8-0.1-1.4-0.4-1.7c-0.3-0.5-0.9-0.7-1.7-0.7c-0.8,0-1.4,0.3-1.7,0.8
			c-0.1,0.2-0.2,0.4-0.2,0.6v6.6h-2v-9.7h2v0.3c0.6-0.3,1.3-0.4,1.9-0.4c1.6,0,2.7,0.5,3.4,1.4c0.5,0.7,0.7,1.6,0.7,2.8V24.1z"/>
		<path fill="#FFFFFF" d="M131.5,24.1c-1.2,0-1.9-0.3-2.3-1c-0.2-0.4-0.3-0.9-0.3-1.6V10.1h1.9v11.3c0,0.3,0,0.4,0.1,0.5
			c0.1,0.1,0.3,0.1,0.6,0.1V24.1z"/>
		<path fill="#FFFFFF" d="M141.9,19.2c0,1.4-0.2,2.5-0.7,3.3c-0.7,1.2-1.9,1.8-3.6,1.8c-1.7,0-2.8-0.6-3.6-1.8
			c-0.5-0.8-0.7-1.8-0.7-3.3c0-1.4,0.2-2.5,0.7-3.3c0.7-1.2,1.9-1.8,3.6-1.8c1.6,0,2.8,0.6,3.6,1.8
			C141.7,16.7,141.9,17.8,141.9,19.2z M139.8,19.2c0-1.1-0.1-1.8-0.4-2.2c-0.3-0.5-1-0.8-1.8-0.8c-0.9,0-1.5,0.3-1.8,0.8
			c-0.3,0.4-0.4,1.2-0.4,2.2c0,1.1,0.1,1.8,0.4,2.2c0.3,0.6,1,0.8,1.8,0.8c0.9,0,1.5-0.3,1.8-0.8C139.7,21,139.8,20.3,139.8,19.2z"
			/>
		<path fill="#FFFFFF" d="M151.8,23.7l-2,0.6l-0.2-0.5c-0.7,0.4-1.5,0.5-2.5,0.5c-0.9,0-1.8-0.3-2.5-0.9c-0.7-0.6-1-1.3-1-2.2
			c0-0.9,0.3-1.6,1-2.2c0.7-0.6,1.5-0.9,2.5-0.9h1.6c0.2,0,0.4-0.1,0.6-0.2V17c0-0.2-0.1-0.5-0.4-0.7c-0.3-0.2-0.6-0.3-1.1-0.3
			c-1,0-1.7,0.4-2,1.3l-2-0.6c0.6-1.8,2-2.7,4-2.7c0.9,0,1.8,0.3,2.5,0.8c0.7,0.6,1,1.3,1,2.1v5.6L151.8,23.7z M149.4,21.6v-1.8
			c-0.2,0-0.4,0.1-0.6,0.1h-1.6c-0.4,0-0.8,0.1-1,0.4c-0.3,0.3-0.4,0.6-0.4,0.9c0,0.3,0.1,0.5,0.4,0.8c0.3,0.3,0.6,0.4,1.1,0.4
			C148.1,22.4,148.9,22.1,149.4,21.6z"/>
		<path fill="#FFFFFF" d="M162,23.8l-2,0.6l-0.2-0.7c-0.7,0.4-1.4,0.6-2.2,0.6c-1.6,0-2.7-0.6-3.5-1.9c-0.4-0.8-0.7-1.9-0.7-3.3
			c0-1.4,0.2-2.5,0.7-3.2c0.7-1.2,1.9-1.9,3.5-1.9c0.7,0,1.3,0.1,1.9,0.4v-4.4h2.1v12.4L162,23.8z M159.6,17.8
			c0-0.4-0.1-0.7-0.2-0.9c-0.3-0.6-0.9-0.8-1.7-0.8s-1.4,0.3-1.7,0.8c-0.3,0.5-0.4,1.2-0.4,2.2c0,1,0.1,1.8,0.4,2.2
			c0.3,0.6,0.9,0.8,1.7,0.8s1.4-0.3,1.7-0.8c0.1-0.2,0.2-0.5,0.2-0.9V17.8z"/>
		<path fill="#FFFFFF" d="M178.4,19.2c0,1.4-0.2,2.5-0.7,3.3c-0.7,1.2-1.9,1.8-3.6,1.8c-1.7,0-2.8-0.6-3.6-1.8
			c-0.5-0.8-0.7-1.8-0.7-3.3c0-1.4,0.2-2.5,0.7-3.3c0.7-1.2,1.9-1.8,3.6-1.8c1.6,0,2.8,0.6,3.6,1.8
			C178.1,16.7,178.4,17.8,178.4,19.2z M176.3,19.2c0-1.1-0.1-1.8-0.4-2.2c-0.3-0.5-1-0.8-1.8-0.8c-0.9,0-1.5,0.3-1.8,0.8
			c-0.3,0.4-0.4,1.2-0.4,2.2c0,1.1,0.1,1.8,0.4,2.2c0.3,0.6,1,0.8,1.8,0.8c0.9,0,1.5-0.3,1.8-0.8C176.2,21,176.3,20.3,176.3,19.2z"
			/>
		<path fill="#FFFFFF" d="M188.6,24.1h-2v-5.6c0-0.8-0.1-1.4-0.4-1.7c-0.3-0.5-0.9-0.7-1.7-0.7c-0.8,0-1.4,0.3-1.7,0.8
			c-0.1,0.2-0.2,0.4-0.2,0.6v6.6h-2v-9.7h2v0.3c0.6-0.3,1.3-0.4,1.9-0.4c1.6,0,2.7,0.5,3.4,1.4c0.5,0.7,0.7,1.6,0.7,2.8V24.1z"/>
		<path fill="#FFFFFF" d="M200.4,16H199v5.4c0,0.4,0.1,0.6,0.3,0.6h0.9v2h-0.9c-0.8,0-1.4-0.3-1.9-1c-0.2-0.4-0.4-0.9-0.4-1.6V16
			h-1.2v-1.8h1.2v-2.6h2v2.6h1.4V16z"/>
		<path fill="#FFFFFF" d="M210.6,24.1h-2v-5.5c0-0.8-0.1-1.4-0.4-1.8c-0.3-0.5-0.9-0.7-1.7-0.7c-0.8,0-1.3,0.3-1.7,0.8
			c-0.1,0.2-0.2,0.4-0.3,0.6v6.5h-2V10.1h2v4.4c0.6-0.3,1.2-0.4,1.9-0.4c1.6,0,2.7,0.5,3.4,1.6c0.5,0.7,0.7,1.7,0.7,2.9V24.1z"/>
		<path fill="#FFFFFF" d="M220.9,20h-6.2c0.1,0.6,0.2,1.1,0.4,1.4c0.4,0.6,1.1,0.9,2,0.9c0.8,0,1.5-0.3,2.1-0.9l1.6,1.2
			c-1,1.1-2.2,1.7-3.7,1.7c-1.7,0-3-0.6-3.8-1.8c-0.5-0.8-0.8-1.8-0.8-3.3c0-1.4,0.3-2.5,0.8-3.3c0.8-1.2,2-1.7,3.6-1.7
			c1.5,0,2.6,0.6,3.3,1.8c0.3,0.5,0.5,1.1,0.6,1.9C220.9,18.2,220.9,18.9,220.9,20z M218.8,18c-0.1-0.5-0.1-0.8-0.2-1
			c-0.4-0.6-0.9-0.8-1.6-0.8c-1.2,0-1.9,0.6-2.2,1.8H218.8z"/>
	</g>
	<g display="inline">
		<path fill="#FFFFFF" d="M97.4,56.4h-3.9l-2.7-6.7h-9.3l-2.7,6.7h-3.9l9.5-24h3.4L97.4,56.4z M89.4,46.1l-3.3-8.3l-3.3,8.3H89.4z"
			/>
		<path fill="#FFFFFF" d="M113.8,48.1c0,2.3-0.4,4.1-1.1,5.4c-1.2,2.1-3.2,3.2-5.9,3.2c-1.2,0-2.3-0.3-3.3-0.8v8h-3.5V39.6h3.5v0.5
			c1-0.5,2.1-0.8,3.3-0.8c2.7,0,4.7,1.1,5.9,3.2C113.4,43.9,113.8,45.8,113.8,48.1z M110.3,48.1c0-1.7-0.2-3-0.7-3.8
			c-0.5-0.9-1.5-1.4-2.9-1.4c-1.4,0-2.3,0.5-2.9,1.4c-0.2,0.4-0.4,0.9-0.4,1.5v4.4c0.1,0.6,0.2,1.2,0.4,1.5c0.6,1,1.5,1.4,2.9,1.4
			c1.4,0,2.3-0.5,2.9-1.4C110.1,51,110.3,49.8,110.3,48.1z"/>
		<path fill="#FFFFFF" d="M130.8,48.1c0,2.3-0.4,4.1-1.1,5.4c-1.2,2.1-3.2,3.2-5.9,3.2c-1.2,0-2.3-0.3-3.3-0.8v8h-3.5V39.6h3.5v0.5
			c1-0.5,2.1-0.8,3.3-0.8c2.7,0,4.7,1.1,5.9,3.2C130.4,43.9,130.8,45.8,130.8,48.1z M127.3,48.1c0-1.7-0.2-3-0.7-3.8
			c-0.5-0.9-1.5-1.4-2.9-1.4c-1.4,0-2.3,0.5-2.9,1.4c-0.2,0.4-0.4,0.9-0.4,1.5v4.4c0.1,0.6,0.2,1.2,0.4,1.5c0.6,1,1.5,1.4,2.9,1.4
			c1.4,0,2.3-0.5,2.9-1.4C127,51,127.3,49.8,127.3,48.1z"/>
		<path fill="#FFFFFF" d="M162.8,49.3c0,2.3-0.9,4.1-2.8,5.5c-1.7,1.3-3.7,1.9-6.1,1.9c-5.6,0-8.8-2.6-9.8-7.9l3.6-0.6
			c0.3,1.8,1,3,2,3.8c1,0.8,2.4,1.1,4.2,1.1c1.3,0,2.5-0.3,3.4-0.9c1.1-0.7,1.7-1.7,1.7-3c0-1.6-1.2-2.7-3.6-3.4
			c-2.2-0.6-4.5-1.3-6.7-1.9c-2.4-1.1-3.6-2.9-3.6-5.3c0-2.1,0.8-3.8,2.5-4.9c1.5-1,3.3-1.5,5.5-1.5c2.3,0,4.1,0.4,5.5,1.3
			c1.4,0.9,2.6,2.4,3.5,4.4l-3.3,1.5c-0.8-1.5-1.5-2.5-2.2-3c-0.7-0.5-1.9-0.8-3.5-0.8c-3,0-4.4,1-4.4,2.9c0,1.2,1.2,2.2,3.6,2.8
			c3.9,1.1,6.1,1.8,6.7,2.1C161.6,44.8,162.8,46.7,162.8,49.3z"/>
		<path fill="#FFFFFF" d="M173.1,42.5h-2.3v9.4c0,0.7,0.1,1,0.4,1h1.5v3.5h-1.5c-1.4,0-2.5-0.6-3.2-1.7c-0.4-0.7-0.6-1.6-0.6-2.8
			v-9.4h-2.1v-3.2h2.1v-4.5h3.4v4.5h2.3V42.5z"/>
		<path fill="#FFFFFF" d="M191,48c0,2.5-0.4,4.4-1.2,5.6c-1.3,2-3.3,3-6.2,3c-2.8,0-4.9-1-6.2-3c-0.8-1.3-1.2-3.2-1.2-5.6
			c0-2.5,0.4-4.3,1.2-5.6c1.3-2,3.3-3.1,6.2-3.1c2.8,0,4.9,1,6.2,3.1C190.6,43.7,191,45.5,191,48z M187.5,48c0-1.8-0.2-3.1-0.7-3.9
			c-0.6-0.9-1.7-1.4-3.2-1.4c-1.5,0-2.5,0.5-3.1,1.4c-0.5,0.7-0.7,2-0.7,3.9c0,1.8,0.2,3.1,0.7,3.8c0.6,1,1.6,1.4,3.1,1.4
			c1.5,0,2.6-0.5,3.2-1.4C187.2,51.1,187.5,49.8,187.5,48z"/>
		<path fill="#FFFFFF" d="M205.2,40.2l-1.5,3.2c-0.8-0.5-1.6-0.7-2.3-0.7c-0.8,0-1.5,0.2-2.1,0.6c-0.7,0.5-1.1,1.1-1.1,1.8v11.2
			h-3.4V39.5h3.4V40c1-0.5,2.1-0.7,3.2-0.7C202.6,39.4,203.9,39.6,205.2,40.2z"/>
		<path fill="#FFFFFF" d="M221,49.3h-10.7c0.1,1.1,0.3,1.9,0.7,2.4c0.7,1,1.8,1.5,3.5,1.5c1.4,0,2.6-0.5,3.6-1.6l2.8,2.1
			c-1.7,1.9-3.9,2.9-6.4,2.9c-2.9,0-5.1-1-6.5-3.1c-0.9-1.3-1.3-3.2-1.3-5.6c0-2.4,0.4-4.3,1.3-5.6c1.4-2,3.4-3,6.2-3
			c2.5,0,4.4,1,5.7,3c0.6,0.8,0.9,1.9,1,3.3C221.1,46.2,221.1,47.4,221,49.3z M217.5,45.9c-0.1-0.8-0.2-1.4-0.4-1.7
			c-0.7-1-1.6-1.4-2.8-1.4c-2.1,0-3.4,1-3.8,3.1H217.5z"/>
	</g>
	<path id="Shape" display="inline" fill="#FFFFFF" d="M56.2,44.6c-0.6,1.9-1.5,3.8-2.8,5.7c-1.9,3-3.9,4.5-5.8,4.5
		c-0.7,0-1.8-0.2-3.1-0.7c-1.3-0.5-2.4-0.7-3.4-0.7c-0.9,0-2,0.3-3.2,0.8c-1.2,0.5-2.2,0.8-3,0.8c-2.3,0-4.5-2-6.8-5.9
		c-2.2-4-3.3-7.8-3.3-11.5c0-3.5,0.8-6.3,2.5-8.5c1.7-2.2,3.8-3.3,6.4-3.3c1.1,0,2.4,0.2,4,0.7c1.6,0.5,2.6,0.7,3.1,0.7
		c0.7,0,1.7-0.3,3.2-0.8c1.5-0.5,2.8-0.8,3.9-0.8c1.8,0,3.4,0.5,4.8,1.5c0.8,0.5,1.6,1.3,2.3,2.3c-1.2,1-2,1.9-2.6,2.7
		c-1,1.4-1.5,3-1.5,4.7c0,1.9,0.5,3.6,1.5,5.1S54.9,44.2,56.2,44.6L56.2,44.6z M47.8,17.8c0,0.9-0.2,2-0.7,3.1
		C46.7,22,46,23.1,45,24c-0.8,0.8-1.6,1.4-2.4,1.6c-0.6,0.2-1.3,0.3-2.3,0.4c0-2.3,0.6-4.2,1.8-5.9c1.1-1.6,3-2.8,5.6-3.4
		c0,0,0,0.1,0.1,0.3c0,0.1,0,0.2,0.1,0.3c0,0.1,0,0.1,0,0.2S47.8,17.7,47.8,17.8L47.8,17.8z"/>
</g>
<g id="Layer_1_copy">
	<g>
		<path fill="#FFFFFF" d="M88.5,13.4L87,14.6c-0.5-0.6-0.9-1-1.2-1.2c-0.4-0.3-1-0.5-1.5-0.5c-2.1,0-3.1,1.5-3.1,4.4
			c0,2.9,1,4.4,3.1,4.4c0.6,0,1.1-0.2,1.5-0.5c0.3-0.2,0.7-0.6,1.2-1.2l1.4,1.2c-0.7,0.8-1.3,1.3-1.8,1.7c-0.7,0.4-1.5,0.6-2.3,0.6
			c-1.7,0-3-0.6-3.8-1.9c-0.7-1.1-1.1-2.5-1.1-4.3s0.4-3.2,1.1-4.3c0.9-1.3,2.1-1.9,3.8-1.9c0.9,0,1.7,0.2,2.3,0.6
			C87.2,12.1,87.8,12.7,88.5,13.4z"/>
		<path fill="#FFFFFF" d="M97.4,19.1c0,1.2-0.2,2.2-0.6,2.8c-0.6,1-1.7,1.5-3.1,1.5c-1.4,0-2.5-0.5-3.1-1.5
			c-0.4-0.7-0.6-1.6-0.6-2.8c0-1.2,0.2-2.2,0.6-2.8c0.6-1,1.7-1.5,3.1-1.5c1.4,0,2.4,0.5,3.1,1.5C97.2,17,97.4,17.9,97.4,19.1z
			 M95.6,19.1c0-0.9-0.1-1.6-0.3-1.9c-0.3-0.5-0.8-0.7-1.6-0.7c-0.7,0-1.3,0.2-1.6,0.7c-0.2,0.4-0.3,1-0.3,1.9
			c0,0.9,0.1,1.5,0.3,1.9c0.3,0.5,0.8,0.7,1.6,0.7c0.8,0,1.3-0.2,1.6-0.7C95.5,20.7,95.6,20.1,95.6,19.1z"/>
		<path fill="#FFFFFF" d="M110.9,23.3h-1.8v-4.8c0-0.7-0.1-1.2-0.3-1.5c-0.2-0.4-0.7-0.6-1.3-0.6c-0.6,0-1,0.2-1.3,0.7
			c-0.1,0.2-0.2,0.5-0.3,0.9c0,0.2,0,0.4,0,0.5v4.8h-1.8v-4.8c0-0.7-0.1-1.2-0.3-1.5c-0.2-0.4-0.7-0.6-1.3-0.6c-0.5,0-1,0.2-1.2,0.5
			c-0.1,0.2-0.2,0.4-0.2,0.7v5.7h-1.8v-8.4h1.8v0.3c0.4-0.3,0.8-0.4,1.4-0.4c1.2,0,2,0.3,2.5,0.8c0.6-0.6,1.4-0.8,2.4-0.8
			c1.3,0,2.3,0.4,2.8,1.3c0.4,0.6,0.6,1.4,0.6,2.4V23.3z"/>
		<path fill="#FFFFFF" d="M115.1,11.9c0,0.3-0.1,0.5-0.3,0.7c-0.2,0.2-0.5,0.3-0.7,0.3c-0.3,0-0.5-0.1-0.7-0.3
			c-0.2-0.2-0.3-0.5-0.3-0.7c0-0.3,0.1-0.5,0.3-0.7s0.5-0.3,0.7-0.3c0.3,0,0.5,0.1,0.7,0.3C115,11.4,115.1,11.6,115.1,11.9z
			 M114.9,23.3h-1.8v-8.5h1.8V23.3z"/>
		<path fill="#FFFFFF" d="M124.3,23.3h-1.8v-4.8c0-0.7-0.1-1.2-0.3-1.5c-0.3-0.4-0.8-0.6-1.5-0.6c-0.7,0-1.2,0.2-1.4,0.7
			c-0.1,0.1-0.1,0.3-0.2,0.5v5.7h-1.8v-8.4h1.8v0.3c0.5-0.3,1.1-0.4,1.7-0.4c1.4,0,2.4,0.4,2.9,1.2c0.4,0.6,0.6,1.4,0.6,2.4V23.3z"
			/>
		<path fill="#FFFFFF" d="M133.4,23.9c-0.1,0.5-0.4,0.9-0.8,1.4c-0.8,0.8-1.8,1.3-3.1,1.3c-0.9,0-1.6-0.2-2.3-0.6
			c-0.8-0.5-1.2-1.2-1.2-2.1c0-0.2,0-0.4,0.1-0.7l1.7,0.5c-0.1,0.2-0.1,0.5,0.1,0.6c0.3,0.4,0.8,0.6,1.6,0.6c0.6,0,1.1-0.2,1.6-0.5
			c0.4-0.3,0.6-0.6,0.7-1c0-0.2,0-0.4-0.2-0.5c-0.1-0.1-0.4-0.2-0.7-0.1c-0.2,0-0.6,0.1-1.2,0.2c-0.5,0.1-0.9,0.2-1.2,0.2
			c-0.5,0-0.8-0.1-1.1-0.3c-0.5-0.3-0.7-0.7-0.7-1.3c0-0.6,0.2-1,0.6-1.5c-0.6-0.5-0.9-1.3-0.9-2.4c0-1.2,0.4-2,1.1-2.5
			c0.5-0.4,1.2-0.5,2.1-0.5c0.8,0,1.5,0.2,2,0.5c0-0.1,0.1-0.3,0.1-0.7h1.8c0,1-0.3,1.7-0.8,2.1c0.1,0.4,0.2,0.8,0.2,1.2
			c0,1.2-0.4,2-1.1,2.5c-0.5,0.4-1.2,0.5-2.1,0.5c0,0-0.3,0-0.8-0.1c-0.3,0.2-0.4,0.4-0.4,0.5c0,0.3,0.2,0.4,0.6,0.4
			c0.3,0,0.6-0.1,0.9-0.2c0.6-0.2,1-0.3,1.4-0.3c0.6,0,1.2,0.2,1.7,0.6c0.5,0.4,0.7,0.9,0.7,1.5C133.5,23.5,133.4,23.7,133.4,23.9z
			 M130.9,17.8c0-0.6-0.1-0.9-0.4-1.1c-0.3-0.2-0.6-0.3-1-0.3c-0.4,0-0.8,0.1-1,0.3c-0.3,0.2-0.4,0.6-0.4,1.1c0,0.6,0.1,1,0.4,1.2
			c0.3,0.2,0.7,0.3,1,0.3c0.4,0,0.7-0.1,1-0.3C130.8,18.8,130.9,18.4,130.9,17.8z"/>
		<path fill="#FFFFFF" d="M146.8,20.8c0,0.8-0.3,1.5-1,2c-0.6,0.4-1.4,0.7-2.2,0.7c-1.8,0-3-0.8-3.5-2.4l1.7-0.3
			c0.2,0.4,0.4,0.7,0.7,0.8c0.2,0.1,0.6,0.2,1.1,0.2c0.4,0,0.7-0.1,1-0.2c0.4-0.2,0.5-0.4,0.5-0.8c0-0.5-0.4-0.8-1.2-1
			c-1.4-0.4-2.2-0.6-2.3-0.7c-0.8-0.4-1.2-1-1.2-1.9c0-0.8,0.3-1.4,1-1.8c0.6-0.4,1.2-0.6,2.1-0.6c1.5,0,2.5,0.5,3.1,1.6l-1.6,0.8
			c-0.3-0.5-0.8-0.7-1.5-0.7c-0.8,0-1.3,0.2-1.3,0.7c0,0.3,0.4,0.5,1.2,0.7c1.1,0.3,1.9,0.5,2.3,0.7
			C146.4,19.1,146.8,19.8,146.8,20.8z"/>
		<path fill="#FFFFFF" d="M155.6,19.1c0,1.2-0.2,2.2-0.6,2.8c-0.6,1-1.7,1.5-3.1,1.5c-1.4,0-2.5-0.5-3.1-1.5
			c-0.4-0.7-0.6-1.6-0.6-2.8c0-1.2,0.2-2.2,0.6-2.8c0.6-1,1.7-1.5,3.1-1.5c1.4,0,2.4,0.5,3.1,1.5C155.4,17,155.6,17.9,155.6,19.1z
			 M153.8,19.1c0-0.9-0.1-1.6-0.3-1.9c-0.3-0.5-0.8-0.7-1.6-0.7c-0.7,0-1.3,0.2-1.6,0.7c-0.2,0.4-0.3,1-0.3,1.9
			c0,0.9,0.1,1.5,0.3,1.9c0.3,0.5,0.8,0.7,1.6,0.7c0.8,0,1.3-0.2,1.6-0.7C153.7,20.7,153.8,20.1,153.8,19.1z"/>
		<path fill="#FFFFFF" d="M164.6,19.1c0,1.2-0.2,2.2-0.6,2.8c-0.6,1-1.7,1.5-3.1,1.5c-1.4,0-2.5-0.5-3.1-1.5
			c-0.4-0.7-0.6-1.6-0.6-2.8c0-1.2,0.2-2.2,0.6-2.8c0.6-1,1.7-1.5,3.1-1.5c1.4,0,2.4,0.5,3.1,1.5C164.4,17,164.6,17.9,164.6,19.1z
			 M162.8,19.1c0-0.9-0.1-1.6-0.3-1.9c-0.3-0.5-0.8-0.7-1.6-0.7c-0.7,0-1.3,0.2-1.6,0.7c-0.2,0.4-0.3,1-0.3,1.9
			c0,0.9,0.1,1.5,0.3,1.9c0.3,0.5,0.8,0.7,1.6,0.7c0.8,0,1.3-0.2,1.6-0.7C162.7,20.7,162.8,20.1,162.8,19.1z"/>
		<path fill="#FFFFFF" d="M173.4,23.3h-1.8v-4.8c0-0.7-0.1-1.2-0.3-1.5c-0.3-0.4-0.8-0.6-1.5-0.6c-0.7,0-1.2,0.2-1.4,0.7
			c-0.1,0.1-0.1,0.3-0.2,0.5v5.7h-1.8v-8.4h1.8v0.3c0.5-0.3,1.1-0.4,1.7-0.4c1.4,0,2.4,0.4,2.9,1.2c0.4,0.6,0.6,1.4,0.6,2.4V23.3z"
			/>
		<path fill="#FFFFFF" d="M183.5,16.4h-1.2v4.7c0,0.3,0.1,0.5,0.2,0.5h0.8v1.7h-0.8c-0.7,0-1.2-0.3-1.6-0.9
			c-0.2-0.3-0.3-0.8-0.3-1.4v-4.7h-1v-1.6h1v-2.3h1.7v2.3h1.2V16.4z"/>
		<path fill="#FFFFFF" d="M192.5,19.1c0,1.2-0.2,2.2-0.6,2.8c-0.6,1-1.7,1.5-3.1,1.5c-1.4,0-2.5-0.5-3.1-1.5
			c-0.4-0.7-0.6-1.6-0.6-2.8c0-1.2,0.2-2.2,0.6-2.8c0.6-1,1.7-1.5,3.1-1.5c1.4,0,2.4,0.5,3.1,1.5C192.3,17,192.5,17.9,192.5,19.1z
			 M190.7,19.1c0-0.9-0.1-1.6-0.3-1.9c-0.3-0.5-0.8-0.7-1.6-0.7c-0.7,0-1.3,0.2-1.6,0.7c-0.2,0.4-0.3,1-0.3,1.9
			c0,0.9,0.1,1.5,0.3,1.9c0.3,0.5,0.8,0.7,1.6,0.7c0.8,0,1.3-0.2,1.6-0.7C190.6,20.7,190.7,20.1,190.7,19.1z"/>
		<path fill="#FFFFFF" d="M202.5,16.4h-1.2v4.7c0,0.3,0.1,0.5,0.2,0.5h0.8v1.7h-0.8c-0.7,0-1.2-0.3-1.6-0.9
			c-0.2-0.3-0.3-0.8-0.3-1.4v-4.7h-1v-1.6h1v-2.3h1.7v2.3h1.2V16.4z"/>
		<path fill="#FFFFFF" d="M211.3,23.3h-1.8v-4.7c0-0.7-0.1-1.2-0.3-1.5c-0.3-0.4-0.8-0.6-1.5-0.6c-0.7,0-1.2,0.2-1.4,0.7
			c-0.1,0.2-0.2,0.3-0.2,0.5v5.6h-1.8v-12h1.8v3.8c0.5-0.3,1.1-0.4,1.7-0.4c1.3,0,2.3,0.5,2.9,1.4c0.4,0.6,0.6,1.4,0.6,2.5V23.3z"/>
		<path fill="#FFFFFF" d="M220.2,19.8h-5.3c0,0.6,0.2,1,0.3,1.2c0.3,0.5,0.9,0.8,1.7,0.8c0.7,0,1.3-0.3,1.8-0.8l1.4,1
			c-0.9,1-1.9,1.4-3.2,1.4c-1.5,0-2.5-0.5-3.2-1.5c-0.4-0.7-0.7-1.6-0.7-2.8c0-1.2,0.2-2.2,0.7-2.8c0.7-1,1.7-1.5,3.1-1.5
			c1.3,0,2.2,0.5,2.9,1.5c0.3,0.4,0.4,1,0.5,1.7C220.2,18.3,220.2,18.8,220.2,19.8z M218.4,18.1c0-0.4-0.1-0.7-0.2-0.8
			c-0.3-0.5-0.8-0.7-1.4-0.7c-1.1,0-1.7,0.5-1.9,1.5H218.4z"/>
	</g>
	<g>
		<path fill="#FFFFFF" d="M97.4,56.4h-3.9l-2.7-6.7h-9.3l-2.7,6.7h-3.9l9.5-24h3.4L97.4,56.4z M89.4,46.1l-3.3-8.3l-3.3,8.3H89.4z"
			/>
		<path fill="#FFFFFF" d="M113.8,48.1c0,2.3-0.4,4.1-1.1,5.4c-1.2,2.1-3.2,3.2-5.9,3.2c-1.2,0-2.3-0.3-3.3-0.8v8h-3.5V39.6h3.5v0.5
			c1-0.5,2.1-0.8,3.3-0.8c2.7,0,4.7,1.1,5.9,3.2C113.4,43.9,113.8,45.8,113.8,48.1z M110.3,48.1c0-1.7-0.2-3-0.7-3.8
			c-0.5-0.9-1.5-1.4-2.9-1.4c-1.4,0-2.3,0.5-2.9,1.4c-0.2,0.4-0.4,0.9-0.4,1.5v4.4c0.1,0.6,0.2,1.2,0.4,1.5c0.6,1,1.5,1.4,2.9,1.4
			c1.4,0,2.3-0.5,2.9-1.4C110.1,51,110.3,49.8,110.3,48.1z"/>
		<path fill="#FFFFFF" d="M130.8,48.1c0,2.3-0.4,4.1-1.1,5.4c-1.2,2.1-3.2,3.2-5.9,3.2c-1.2,0-2.3-0.3-3.3-0.8v8h-3.5V39.6h3.5v0.5
			c1-0.5,2.1-0.8,3.3-0.8c2.7,0,4.7,1.1,5.9,3.2C130.4,43.9,130.8,45.8,130.8,48.1z M127.3,48.1c0-1.7-0.2-3-0.7-3.8
			c-0.5-0.9-1.5-1.4-2.9-1.4c-1.4,0-2.3,0.5-2.9,1.4c-0.2,0.4-0.4,0.9-0.4,1.5v4.4c0.1,0.6,0.2,1.2,0.4,1.5c0.6,1,1.5,1.4,2.9,1.4
			c1.4,0,2.3-0.5,2.9-1.4C127,51,127.3,49.8,127.3,48.1z"/>
		<path fill="#FFFFFF" d="M162.8,49.3c0,2.3-0.9,4.1-2.8,5.5c-1.7,1.3-3.7,1.9-6.1,1.9c-5.6,0-8.8-2.6-9.8-7.9l3.6-0.6
			c0.3,1.8,1,3,2,3.8c1,0.8,2.4,1.1,4.2,1.1c1.3,0,2.5-0.3,3.4-0.9c1.1-0.7,1.7-1.7,1.7-3c0-1.6-1.2-2.7-3.6-3.4
			c-2.2-0.6-4.5-1.3-6.7-1.9c-2.4-1.1-3.6-2.9-3.6-5.3c0-2.1,0.8-3.8,2.5-4.9c1.5-1,3.3-1.5,5.5-1.5c2.3,0,4.1,0.4,5.5,1.3
			c1.4,0.9,2.6,2.4,3.5,4.4l-3.3,1.5c-0.8-1.5-1.5-2.5-2.2-3c-0.7-0.5-1.9-0.8-3.5-0.8c-3,0-4.4,1-4.4,2.9c0,1.2,1.2,2.2,3.6,2.8
			c3.9,1.1,6.1,1.8,6.7,2.1C161.6,44.8,162.8,46.7,162.8,49.3z"/>
		<path fill="#FFFFFF" d="M173.1,42.5h-2.3v9.4c0,0.7,0.1,1,0.4,1h1.5v3.5h-1.5c-1.4,0-2.5-0.6-3.2-1.7c-0.4-0.7-0.6-1.6-0.6-2.8
			v-9.4h-2.1v-3.2h2.1v-4.5h3.4v4.5h2.3V42.5z"/>
		<path fill="#FFFFFF" d="M191,48c0,2.5-0.4,4.4-1.2,5.6c-1.3,2-3.3,3-6.2,3c-2.8,0-4.9-1-6.2-3c-0.8-1.3-1.2-3.2-1.2-5.6
			c0-2.5,0.4-4.3,1.2-5.6c1.3-2,3.3-3.1,6.2-3.1c2.8,0,4.9,1,6.2,3.1C190.6,43.7,191,45.5,191,48z M187.5,48c0-1.8-0.2-3.1-0.7-3.9
			c-0.6-0.9-1.7-1.4-3.2-1.4c-1.5,0-2.5,0.5-3.1,1.4c-0.5,0.7-0.7,2-0.7,3.9c0,1.8,0.2,3.1,0.7,3.8c0.6,1,1.6,1.4,3.1,1.4
			c1.5,0,2.6-0.5,3.2-1.4C187.2,51.1,187.5,49.8,187.5,48z"/>
		<path fill="#FFFFFF" d="M205.2,40.2l-1.5,3.2c-0.8-0.5-1.6-0.7-2.3-0.7c-0.8,0-1.5,0.2-2.1,0.6c-0.7,0.5-1.1,1.1-1.1,1.8v11.2
			h-3.4V39.5h3.4V40c1-0.5,2.1-0.7,3.2-0.7C202.6,39.4,203.9,39.6,205.2,40.2z"/>
		<path fill="#FFFFFF" d="M221,49.3h-10.7c0.1,1.1,0.3,1.9,0.7,2.4c0.7,1,1.8,1.5,3.5,1.5c1.4,0,2.6-0.5,3.6-1.6l2.8,2.1
			c-1.7,1.9-3.9,2.9-6.4,2.9c-2.9,0-5.1-1-6.5-3.1c-0.9-1.3-1.3-3.2-1.3-5.6c0-2.4,0.4-4.3,1.3-5.6c1.4-2,3.4-3,6.2-3
			c2.5,0,4.4,1,5.7,3c0.6,0.8,0.9,1.9,1,3.3C221.1,46.2,221.1,47.4,221,49.3z M217.5,45.9c-0.1-0.8-0.2-1.4-0.4-1.7
			c-0.7-1-1.6-1.4-2.8-1.4c-2.1,0-3.4,1-3.8,3.1H217.5z"/>
	</g>
	<g id="icon---apple_1_" transform="translate(0.000000, 8.000000)">
		<path id="Shape_1_" fill="#FFFFFF" d="M56.2,36.6c-0.6,1.9-1.5,3.8-2.8,5.7c-1.9,3-3.9,4.5-5.8,4.5c-0.7,0-1.8-0.2-3.1-0.7
			c-1.3-0.5-2.4-0.7-3.4-0.7c-0.9,0-2,0.3-3.2,0.8c-1.2,0.5-2.2,0.8-3,0.8c-2.3,0-4.5-2-6.8-5.9c-2.2-4-3.3-7.8-3.3-11.5
			c0-3.5,0.8-6.3,2.5-8.5c1.7-2.2,3.8-3.3,6.4-3.3c1.1,0,2.4,0.2,4,0.7c1.6,0.5,2.6,0.7,3.1,0.7c0.7,0,1.7-0.3,3.2-0.8
			c1.5-0.5,2.8-0.8,3.9-0.8c1.8,0,3.4,0.5,4.8,1.5c0.8,0.5,1.6,1.3,2.3,2.3c-1.2,1-2,1.9-2.6,2.7c-1,1.4-1.5,3-1.5,4.7
			c0,1.9,0.5,3.6,1.5,5.1S54.9,36.2,56.2,36.6L56.2,36.6z M47.8,9.8c0,0.9-0.2,2-0.7,3.1C46.7,14,46,15.1,45,16
			c-0.8,0.8-1.6,1.4-2.4,1.6c-0.6,0.2-1.3,0.3-2.3,0.4c0-2.3,0.6-4.2,1.8-5.9c1.1-1.6,3-2.8,5.6-3.4c0,0,0,0.1,0.1,0.3
			c0,0.1,0,0.2,0.1,0.3c0,0.1,0,0.1,0,0.2S47.8,9.7,47.8,9.8L47.8,9.8z"/>
	</g>
</g>
</svg>
