<?xml version="1.0" encoding="utf-8"?>
<!-- Generator: Adobe Illustrator 17.1.0, SVG Export Plug-In . SVG Version: 6.00 Build 0)  -->
<!DOCTYPE svg PUBLIC "-//W3C//DTD SVG 1.1//EN" "http://www.w3.org/Graphics/SVG/1.1/DTD/svg11.dtd">
<svg version="1.1" id="Layer_1" xmlns="http://www.w3.org/2000/svg" xmlns:xlink="http://www.w3.org/1999/xlink" x="0px" y="0px"
	 viewBox="0 0 500 500" enable-background="new 0 0 500 500" xml:space="preserve">
<path fill="#63402F" d="M175,132.9c-47.8,43.6-97.3,115.6-70,183.7l1.9-18.2c19.2,48.8,69.9,81.9,76.7,133.3l8.6-10.6l1.9,11.5
	c16.1-1.1,29.1-5.4,40.3-14.4l-4.8,9.6c37.3-15.2,48.9-28.3,70-67.2L175,132.9z"/>
<path fill="#63402F" d="M355.3,160.5c7.3-9,15.5-14.1,28.6-13.5l-1.7,1.6c7.8-1.3,21.6,3.8,28,11.3l-2.7,0.5
	c5.6,6.7,7.5,12.7,6.7,17.6c-2.8,16.3-24.6,20.1-36.6,20.7L355.3,160.5z"/>
<path fill="#DEA35B" d="M369.4,169.4c4-4.9,8.5-7.7,15.6-7.4l-1,0.9c4.3-0.7,11.8,2.1,15.4,6.2l-1.5,0.2
	c12.4,14.9-7.1,22.9-17.4,22.4L369.4,169.4z"/>
<path fill="#FCC88C" d="M369.4,169.4c0.3-0.3,0.5-0.6,0.8-1c7.9-6.2,20.4-4.1,27.6,4.3l-1.5,0.2c3.5,4.1,4.4,7.8,3.8,10.8
	c-3.9,5.5-13.4,8.2-19.6,7.9L369.4,169.4z"/>
<path fill="#63402F" d="M390.6,251.7l-12.7,22.4c-7.4,44.2-1.6,95.5-48.8,106.2c-15.7,3.6-25.1,1.8-48.6-6l4.1-5.3
	c-10,3.4-24.6,2.8-35.5,2l3-4.7l-16.5,6.1l-8.1-17.8l-3.6,2.8c-8.3-7.5-14.4-15.3-18.2-24.5l-2.4,10.7c-32-19.8-65.3-40.2-67.7-80.6
	l-6.4,12.3c-8.3-46.2,13.7-109,45.2-142.4c24.5-26,52.4-29.3,90.9-25c4.5,0.5,58.1,8.6,67.4,30.5c21.6-3.9,51.4,33.2,60.3,50.6
	C403.1,208.8,403.1,229.8,390.6,251.7z"/>
<path fill="#63402F" d="M390.6,251.7l-12.7,22.4c-7.4,44.2-1.6,95.5-48.8,106.2c-15.7,3.6-25.1,1.8-48.6-6l4.1-5.3
	c-10,3.4-24.6,2.8-35.5,2l3-4.7l-16.5,6.1l-8.1-17.8l-3.6,2.8c-8.3-7.5-14.4-15.3-18.2-24.5l-2.4,10.7c-32-19.8,4.2-40.2,1.8-80.6
	l-6.4,12.3c-8.5-47.6-19.9-55,8-84.6c24.5-26,71.2-12.4,109.7-8c4.5,0.5,64-11.2,72.8,6.2C399.3,208.8,403.1,229.8,390.6,251.7z"/>
<path fill="#875938" d="M340.4,242.4c3.3,14.3,15.1,18.8,28.4,14.9l0.2,1.5c-14.8,6.6-28-0.8-30.1-16.4H340.4z"/>
<path fill="#875938" d="M336.9,236.2c-4.3,13.5,4.2,24.2,18.5,26.8l-0.6,1.4c-17.1-1-25.4-14.8-19.4-28.8L336.9,236.2z"/>
<path fill="#875938" d="M364.8,229.2c-8.8-4.2-18.5-2.2-21.7,4.4c-3.2,6.6,1.4,15.4,10.3,19.6c8.8,4.2,18.5,2.2,21.7-4.4
	C378.3,242.2,373.7,233.4,364.8,229.2z"/>
<path fill="#DDDDDC" d="M364.1,230.8c-7.7-3.7-16-2.2-18.6,3.3s1.5,12.8,9.2,16.5s16,2.2,18.6-3.3
	C375.9,241.8,371.8,234.4,364.1,230.8z"/>
<path fill="#FFFFFF" d="M344.7,238.1c0.3,4.6,4.1,9.7,10,12.5c7.3,3.5,15.2,2.3,18.2-2.5c-2.1-3.3-5.8-6.4-10.4-8.6
	C355.8,236.2,349,235.9,344.7,238.1z"/>
<path fill="#25221D" d="M362.5,239.8c-4.4-2.1-9.2-1.3-10.7,1.9c-1.5,3.1,0.9,7.4,5.3,9.5s9.2,1.3,10.7-1.9
	C369.3,246.2,366.9,242,362.5,239.8z"/>
<path fill="#FFFFFF" d="M358.5,239.4c-2-0.9-4.2-0.4-4.9,1.1c-0.7,1.6,0.3,3.6,2.2,4.5c2,0.9,4.2,0.4,4.9-1.1
	C361.5,242.4,360.5,240.3,358.5,239.4z"/>
<path fill="#FCC88C" d="M339.5,233.9c8.9,20.6,56.2,49.8,56.6,65.1c0.5,18.2-29.5,63.3-49,69.6c-33.6,10.7-84.6-9.9-106.3-38.7
	c-16.4-21.8-13.3-47.9,20.3-66.4c24.4-13.4,30-22.4,40.4-47.8c0.3-0.8,1.1-3.2,2.2-6.2c5.5-15.9,41.9-0.6,36.7,16
	C339.2,228.9,338.6,231.9,339.5,233.9z"/>
<path fill="#DEA35B" d="M395.8,305.8c-1.6,6.3-5.9,14.2-11.5,22.4c-10.8,6.5-27.5,7.8-38.2-0.8c-5.8-4.6-10.8-9.7-13.4-26.1
	c-1.6-10.1,2.5-19.3,12.3-23.5c6-2.5,10.6-1,15.4,1.2c7.2,3.2,21.4,10.6,28.7,15.1c3.4,2.1,5.6,5.4,6.3,8.6
	C395.6,303.7,395.7,304.7,395.8,305.8z"/>
<path fill="#875938" d="M291.8,223.1c-16.9,8.2-30.7,0.2-37.5-16l-1.7,1c5.4,19.9,23.2,27,40.4,16.6L291.8,223.1z"/>
<path fill="#875938" d="M296.4,221.6c-9.9,15.1-27.3,15.3-41.4,3.3l-0.9,1.7c14.7,16.1,35,13.2,44.1-4L296.4,221.6z"/>
<path fill="#875938" d="M285.2,188.4c11.2,5.3,17.1,16.5,13.1,25s-16.4,11-27.6,5.6c-11.2-5.3-17.1-16.5-13.1-25
	S274,183,285.2,188.4z"/>
<path fill="#DDDDDC" d="M284.2,190.3c9.8,4.7,15,14.1,11.7,21s-13.9,8.8-23.7,4.2c-9.8-4.6-15-14.1-11.7-21
	C263.8,187.5,274.5,185.7,284.2,190.3z"/>
<path fill="#FFFFFF" d="M292.3,215.6c-4.8,3.3-12.7,3.4-20-0.1c-9.4-4.5-14.7-13.4-12.1-20.3c4.8-0.4,10.7,0.7,16.4,3.4
	C285.3,202.8,291.3,209.5,292.3,215.6z"/>
<path fill="#25221D" d="M284,202.3c5.6,2.7,8.7,8.1,6.8,12.1c-1.9,4-8,5.1-13.7,2.4c-5.6-2.7-8.7-8.1-6.8-12.1
	S278.3,199.6,284,202.3z"/>
<path fill="#FFFFFF" d="M278.8,202.5c-2.2-1-4.6-0.5-5.4,1.2s0.3,3.9,2.5,4.9s4.6,0.5,5.4-1.2C282,205.7,280.9,203.5,278.8,202.5z"
	/>
<path fill="#875938" d="M326.6,306c1.9,0.6,3.2,2.7,2.9,4.6c-0.3,2-2.2,3.1-4.1,2.5s-3.2-2.7-2.9-4.6
	C322.9,306.5,324.7,305.4,326.6,306z"/>
<path fill="#875938" d="M317,313.8c1.9,0.6,3.2,2.7,2.9,4.6c-0.3,2-2.2,3.1-4.1,2.5s-3.2-2.7-2.9-4.6
	C313.2,314.3,315.1,313.2,317,313.8z"/>
<path fill="#875938" d="M329.4,323.1c1.9,0.6,3.2,2.7,2.9,4.6c-0.3,2-2.2,3.1-4.1,2.5s-3.2-2.7-2.9-4.6
	C325.7,323.6,327.5,322.5,329.4,323.1z"/>
<path fill="#63402F" d="M227.4,111.5c-1.9-9.2-0.8-17.7,5.1-26.1l0.8,3c3.1-8.5,17.2-17.6,29.7-17.6l-1.1,3
	c31.7,0.3,38.4,24.6,26.2,44.8C277.6,133.4,233.9,142.3,227.4,111.5z"/>
<path fill="#DEA35B" d="M250.1,117.5c-3.4-7.9-4-14.4,0.6-21l0.4,1.6c1.7-4.7,9.4-9.6,16.3-9.6l-0.6,1.6c17.4,0.2,21,13.5,14.3,24.5
	l-4.2,6C266.7,122.3,258.3,121.4,250.1,117.5z"/>
<path fill="#FCC88C" d="M284.2,102.6c0.4,3.8-0.7,8-3.1,12l-4.2,6c-9.8,1.6-18,0.8-26-2.8c-1.5-5.6-1.1-10.7,2.4-15.8l0.4,1.6
	C258.3,91.1,277.3,92.9,284.2,102.6z"/>
<path fill="#63402F" d="M247.1,191.8l1.1-13.3c26.6,4.7,45.6,8.6,64.7,0.8l2.6-11.1l2.6,0.4l-2.2,25.1
	C292,201.1,269.2,200.8,247.1,191.8z"/>
<path fill="#63402F" d="M366,201.4l2.4,1l-7.3,11.8c3.7,10.1,8.3,16.6,31.1,29.2l-5.4,11c-25.5-11.2-33.7-25.8-36.9-36.2L366,201.4z
	"/>
<path fill="#875938" d="M372.3,332.1c-0.9-0.3-2.2,0.6-2.8,1.9c-0.6,1.3-0.4,2.6,0.6,2.9c0.9,0.3,2.2-0.6,2.8-1.9
	C373.5,333.6,373.2,332.3,372.3,332.1z"/>
<path fill="#875938" d="M372.8,340.1c-0.9-0.3-2.2,0.6-2.8,1.9c-0.6,1.3-0.4,2.6,0.6,2.9c0.9,0.3,2.2-0.6,2.8-1.9
	C374,341.6,373.7,340.3,372.8,340.1z"/>
<path fill="#875938" d="M364.7,341.6c-0.9-0.3-2.2,0.6-2.8,1.9c-0.6,1.3-0.4,2.6,0.6,2.9c0.9,0.3,2.2-0.6,2.8-1.9
	S365.6,341.8,364.7,341.6z"/>
<path fill="#875938" d="M353.7,322.8c-14.2,22.4-16.9,22.9-44.2,17.5c-6.6-1.3-14.5-0.4-15.9,6.4c5.5-2.6,10.4-3,15.4-2.1
	c9.1,1.7,14.7,4.2,24.3,4c1.2,4.7,4.6,8.9,3.9,13.7c4.1-4.7,2.4-7.8,1.1-13.7c9.3-5.7,14.2-15.8,20-24.9L353.7,322.8z"/>
<path fill="#4F4C4A" d="M393.6,291.3c-7.3-4.4-21.5-11.9-28.7-15.1c-4.8-2.1-9.4-3.7-15.4-1.2c-9.8,4.1-13.9,13.4-12.3,23.5
	c2.6,16.4,7.6,21.5,13.4,26.1c13.5,10.8,36.4,6.1,45.3-5.3c3.8-4.8,5.4-13.3,4-19.4C399.2,296.7,397.1,293.3,393.6,291.3z"/>
<path fill="#726F6F" d="M380.6,286.8c-6.2-3.7-12.5-5.2-15.9,0.3c-2.8,4.5-0.1,9.6,4.9,12.2C387.4,307.3,409.4,301.9,380.6,286.8z"
	/>
<path fill="#726F6F" d="M349.5,290.1c-6.6-3,0.6-15.7,7.7-13.3C367,280.1,359.2,294.6,349.5,290.1z"/>
<path fill="#25221D" d="M346.6,300.6c11.3-6.1,23,15.5,11.7,21.6C347.1,328.3,335.3,306.7,346.6,300.6z"/>
<path fill="#25221D" d="M388,321.4c2.6-7.1-11.6-5.3-14.1,1.8C371.2,330.4,385.4,328.6,388,321.4z"/>
</svg>
