<?xml version="1.0" encoding="utf-8"?>
<!-- Generator: Adobe Illustrator 17.1.0, SVG Export Plug-In . SVG Version: 6.00 Build 0)  -->
<!DOCTYPE svg PUBLIC "-//W3C//DTD SVG 1.1 Tiny//EN" "http://www.w3.org/Graphics/SVG/1.1/DTD/svg11-tiny.dtd">
<svg version="1.1" baseProfile="tiny" xmlns="http://www.w3.org/2000/svg" xmlns:xlink="http://www.w3.org/1999/xlink" x="0px"
	 y="0px" viewBox="0 0 80 80" xml:space="preserve">
<g id="twitter">
	<path fill="#FFFFFF" d="M80,15.2c-2.9,1.3-6.1,2.2-9.4,2.6c3.4-2,6-5.2,7.2-9.1c-3.2,1.9-6.7,3.2-10.4,4c-3-3.2-7.3-5.2-12-5.2
		C46.3,7.5,39,14.8,39,23.9c0,1.3,0.1,2.5,0.4,3.7C25.8,27,13.7,20.4,5.6,10.5c-1.4,2.4-2.2,5.2-2.2,8.3c0,5.7,2.9,10.7,7.3,13.7
		c-2.7-0.1-5.2-0.8-7.4-2.1c0,0.1,0,0.1,0,0.2c0,8,5.7,14.6,13.2,16.1c-1.4,0.4-2.8,0.6-4.3,0.6c-1.1,0-2.1-0.1-3.1-0.3
		c2.1,6.5,8.2,11.3,15.3,11.4c-5.6,4.4-12.7,7-20.4,7c-1.3,0-2.6-0.1-3.9-0.2c7.3,4.7,15.9,7.4,25.2,7.4c30.2,0,46.7-25,46.7-46.7
		c0-0.7,0-1.4,0-2.1C75,21.4,77.8,18.5,80,15.2z"/>
</g>
<g id="fb" display="none">
	<path id="White_2_" display="inline" fill="#FFFFFF" d="M75.6,0H4.4C2,0,0,2,0,4.4v71.2C0,78,2,80,4.4,80h38.3V49H32.3V36.9h10.4
		V28c0-10.3,6.3-16,15.5-16c4.4,0,8.2,0.3,9.3,0.5v10.8l-6.4,0c-5,0-6,2.4-6,5.9v7.7h12L65.6,49H55.2v31h20.4c2.4,0,4.4-2,4.4-4.4
		V4.4C80,2,78,0,75.6,0z"/>
</g>
</svg>
